<svg width="48.74" height="16.14" viewBox="0 0 48.74 16.14" xmlns="http://www.w3.org/2000/svg"><g id="svgGroup" stroke-linecap="round" fill-rule="evenodd" font-size="9pt" stroke="#000" stroke-width="0.25mm" fill="#000" style="stroke:#000;stroke-width:0.25mm;fill:#000"><path d="M 4.18 16.14 Q 3.1 16.14 2.14 15.75 Q 1.18 15.36 0.59 14.56 A 2.954 2.954 0 0 1 0.076 13.371 A 4.117 4.117 0 0 1 0 12.56 Q 0 11.861 0.185 11.37 A 1.904 1.904 0 0 1 0.41 10.94 Q 0.82 10.36 1.42 10.12 A 3.551 3.551 0 0 1 1.996 9.942 A 2.696 2.696 0 0 1 2.56 9.88 Q 2.02 10.46 1.74 11.16 Q 1.46 11.86 1.46 12.56 Q 1.46 13.3 1.79 13.94 Q 2.12 14.58 2.8 14.97 A 2.752 2.752 0 0 0 3.543 15.256 Q 3.984 15.36 4.52 15.36 Q 5.42 15.36 6.28 15.03 A 3.571 3.571 0 0 0 7.255 14.476 A 3.23 3.23 0 0 0 7.69 14.05 Q 8.24 13.4 8.24 12.44 A 2.813 2.813 0 0 0 8.138 11.669 A 2.301 2.301 0 0 0 7.8 10.96 A 4.399 4.399 0 0 0 6.97 10.085 A 5.221 5.221 0 0 0 6.67 9.86 A 18.202 18.202 0 0 0 5.394 9.051 A 20.041 20.041 0 0 0 5.2 8.94 A 16.837 16.837 0 0 1 3.817 8.071 A 15.502 15.502 0 0 1 3.73 8.01 A 4.729 4.729 0 0 1 2.883 7.247 A 4.211 4.211 0 0 1 2.6 6.88 A 2.48 2.48 0 0 1 2.196 5.832 A 3.275 3.275 0 0 1 2.16 5.34 A 3.96 3.96 0 0 1 2.301 4.314 A 5.243 5.243 0 0 1 2.56 3.58 A 6.061 6.061 0 0 1 3.357 2.256 A 7.191 7.191 0 0 1 3.71 1.84 Q 4.46 1.02 5.51 0.51 Q 6.56 0 7.86 0 A 3.818 3.818 0 0 1 8.436 0.04 Q 9.149 0.149 9.487 0.554 A 1.169 1.169 0 0 1 9.5 0.57 A 2.045 2.045 0 0 1 9.922 1.527 A 2.799 2.799 0 0 1 9.96 2 A 4.773 4.773 0 0 1 9.881 2.845 A 6.338 6.338 0 0 1 9.71 3.55 Q 9.46 4.38 9.1 5.13 Q 8.74 5.88 8.42 6.4 Q 8.155 6.341 8.004 6.201 A 0.591 0.591 0 0 1 7.91 6.09 A 0.915 0.915 0 0 1 7.774 5.727 A 1.209 1.209 0 0 1 7.76 5.54 A 2.38 2.38 0 0 1 7.795 5.15 Q 7.826 4.959 7.888 4.748 A 4.542 4.542 0 0 1 7.94 4.58 Q 8.12 4.04 8.35 3.46 Q 8.58 2.88 8.76 2.33 Q 8.913 1.862 8.936 1.473 A 2.276 2.276 0 0 0 8.94 1.34 A 1.075 1.075 0 0 0 8.909 1.075 A 0.749 0.749 0 0 0 8.7 0.71 A 0.648 0.648 0 0 0 8.494 0.581 Q 8.245 0.48 7.82 0.48 Q 6.88 0.48 6.08 0.92 Q 5.28 1.36 4.68 2.05 A 5.907 5.907 0 0 0 3.989 3.02 A 5.134 5.134 0 0 0 3.75 3.5 A 4.627 4.627 0 0 0 3.543 4.072 Q 3.455 4.381 3.43 4.662 A 2.477 2.477 0 0 0 3.42 4.88 A 2.124 2.124 0 0 0 3.533 5.582 A 1.871 1.871 0 0 0 3.85 6.15 A 4.093 4.093 0 0 0 4.449 6.744 A 5.282 5.282 0 0 0 4.96 7.11 Q 5.64 7.54 6.41 7.97 Q 7.18 8.4 7.86 8.92 Q 8.54 9.44 8.97 10.15 A 2.889 2.889 0 0 1 9.328 11.096 A 4.047 4.047 0 0 1 9.4 11.88 Q 9.4 12.92 8.94 13.71 Q 8.48 14.5 7.71 15.04 Q 6.94 15.58 6.02 15.86 Q 5.1 16.14 4.18 16.14 Z M 20.14 11.14 L 20.34 11.34 Q 20.06 12.32 19.48 13.19 Q 18.9 14.06 18.19 14.61 Q 17.578 15.084 16.974 15.15 A 1.796 1.796 0 0 1 16.78 15.16 Q 16.22 15.16 15.82 14.78 A 2.508 2.508 0 0 1 15.333 14.13 A 3.103 3.103 0 0 1 15.19 13.82 Q 14.96 13.24 14.85 12.63 A 7.954 7.954 0 0 1 14.779 12.159 Q 14.752 11.935 14.744 11.736 A 4.21 4.21 0 0 1 14.74 11.56 A 1.266 1.266 0 0 0 14.88 11.551 Q 15.032 11.534 15.244 11.484 A 5.929 5.929 0 0 0 15.38 11.45 A 3.811 3.811 0 0 0 15.913 11.266 A 4.679 4.679 0 0 0 16.24 11.11 Q 16.68 10.88 16.99 10.51 Q 17.3 10.14 17.3 9.64 A 0.943 0.943 0 0 0 17.255 9.342 A 0.764 0.764 0 0 0 17 8.98 Q 16.7 8.74 16.3 8.74 A 1.767 1.767 0 0 0 15.328 9.035 A 2.293 2.293 0 0 0 15.14 9.17 A 3.958 3.958 0 0 0 14.523 9.791 A 5.11 5.11 0 0 0 14.17 10.29 Q 13.74 10.98 13.4 11.76 A 21.43 21.43 0 0 0 13.023 12.681 A 17.365 17.365 0 0 0 12.82 13.24 Q 12.592 13.905 12.436 14.354 A 150.089 150.089 0 0 1 12.42 14.4 A 1.371 1.371 0 0 1 12.338 14.598 Q 12.286 14.698 12.221 14.771 A 0.585 0.585 0 0 1 12.08 14.89 A 0.92 0.92 0 0 1 11.768 15.007 A 0.863 0.863 0 0 1 11.62 15.02 Q 11.287 15.02 11.136 14.752 A 0.664 0.664 0 0 1 11.13 14.74 A 1.36 1.36 0 0 1 11.022 14.466 Q 10.967 14.272 10.95 14.03 A 12.638 12.638 0 0 1 10.921 13.255 A 13.934 13.934 0 0 1 10.92 13.14 A 7.772 7.772 0 0 1 10.984 12.178 Q 11.067 11.51 11.26 10.74 A 22.322 22.322 0 0 1 11.775 8.997 A 26.636 26.636 0 0 1 12.17 7.91 Q 12.74 6.44 13.42 5.06 Q 14.1 3.68 14.78 2.56 A 18.545 18.545 0 0 1 15.256 1.814 Q 15.668 1.203 16.04 0.78 A 4.452 4.452 0 0 1 16.283 0.523 Q 16.675 0.144 16.947 0.121 A 0.411 0.411 0 0 1 16.98 0.12 A 0.391 0.391 0 0 1 17.264 0.244 Q 17.357 0.337 17.43 0.5 A 1.842 1.842 0 0 1 17.556 0.913 Q 17.592 1.102 17.599 1.319 A 3.289 3.289 0 0 1 17.6 1.42 A 3.689 3.689 0 0 1 17.538 2.071 Q 17.464 2.485 17.3 2.95 A 7.832 7.832 0 0 1 16.784 4.097 A 9.489 9.489 0 0 1 16.45 4.66 Q 15.9 5.52 15.15 6.28 Q 14.4 7.04 13.52 7.58 A 20.034 20.034 0 0 0 12.782 9.716 A 16.978 16.978 0 0 0 12.53 10.73 A 18.548 18.548 0 0 0 12.342 11.724 Q 12.264 12.213 12.229 12.638 A 8.049 8.049 0 0 0 12.2 13.3 Q 12.52 12.5 12.97 11.54 Q 13.42 10.58 14 9.7 Q 14.58 8.82 15.26 8.26 A 2.706 2.706 0 0 1 15.82 7.899 A 1.989 1.989 0 0 1 16.68 7.7 A 1.714 1.714 0 0 1 17.924 8.204 A 2.056 2.056 0 0 1 17.94 8.22 Q 18.46 8.74 18.46 9.48 A 2.069 2.069 0 0 1 18.392 10.021 A 1.644 1.644 0 0 1 18.13 10.57 Q 17.8 11.02 17.33 11.29 Q 16.86 11.56 16.39 11.69 A 4.884 4.884 0 0 1 16.113 11.759 Q 15.836 11.818 15.635 11.82 A 1.415 1.415 0 0 1 15.62 11.82 A 1.901 1.901 0 0 0 15.634 11.913 Q 15.657 12.042 15.707 12.259 A 17.801 17.801 0 0 0 15.74 12.4 A 5.427 5.427 0 0 0 15.899 12.937 A 6.724 6.724 0 0 0 16.03 13.28 A 3.247 3.247 0 0 0 16.272 13.756 A 2.633 2.633 0 0 0 16.5 14.07 Q 16.78 14.4 17.18 14.4 A 1.56 1.56 0 0 0 17.983 14.173 A 2.153 2.153 0 0 0 18.28 13.96 A 4.322 4.322 0 0 0 18.772 13.466 Q 19.028 13.166 19.27 12.79 Q 19.74 12.06 20.14 11.14 Z M 48.48 11.16 L 48.74 11.4 A 8.517 8.517 0 0 1 47.939 12.867 A 7.721 7.721 0 0 1 47.72 13.17 A 5.768 5.768 0 0 1 47.049 13.916 A 4.6 4.6 0 0 1 46.4 14.42 A 2.953 2.953 0 0 1 45.571 14.792 A 2.59 2.59 0 0 1 44.9 14.88 A 2.054 2.054 0 0 1 44.507 14.845 Q 44.111 14.768 43.87 14.52 A 1.224 1.224 0 0 1 43.522 13.695 A 1.61 1.61 0 0 1 43.52 13.62 A 2.625 2.625 0 0 1 43.555 13.204 Q 43.588 13.003 43.65 12.783 A 4.608 4.608 0 0 1 43.68 12.68 Q 43.84 12.16 43.99 11.62 A 4.244 4.244 0 0 0 44.11 11.039 A 3.361 3.361 0 0 0 44.14 10.6 Q 44.14 10.12 43.952 9.895 A 0.539 0.539 0 0 0 43.92 9.86 A 0.733 0.733 0 0 0 43.39 9.64 A 0.926 0.926 0 0 0 43.38 9.64 A 1.191 1.191 0 0 0 42.634 9.904 A 1.636 1.636 0 0 0 42.48 10.04 Q 42.105 10.415 41.792 10.992 A 5.864 5.864 0 0 0 41.75 11.07 A 16.165 16.165 0 0 0 41.203 12.226 A 17.789 17.789 0 0 0 41.13 12.4 Q 40.84 13.1 40.58 13.73 Q 40.382 14.211 40.183 14.558 A 4.182 4.182 0 0 1 40.06 14.76 Q 39.8 15.16 39.52 15.16 Q 39.14 15.16 38.92 14.52 Q 38.7 13.88 38.7 13.08 Q 38.7 12.12 39.02 10.8 Q 39.34 9.48 39.86 8.02 Q 40.38 6.56 41.03 5.16 Q 41.68 3.76 42.36 2.62 A 17.517 17.517 0 0 1 42.849 1.845 Q 43.093 1.48 43.326 1.18 A 7.944 7.944 0 0 1 43.64 0.8 A 3.896 3.896 0 0 1 43.913 0.519 Q 44.343 0.12 44.68 0.12 Q 45.019 0.12 45.172 0.501 A 1.144 1.144 0 0 1 45.19 0.55 A 2.736 2.736 0 0 1 45.314 1.044 A 2.257 2.257 0 0 1 45.34 1.38 Q 45.34 1.94 45.09 2.74 A 11.019 11.019 0 0 1 44.771 3.621 A 14.596 14.596 0 0 1 44.4 4.45 Q 43.96 5.36 43.38 6.24 A 12.257 12.257 0 0 1 42.162 7.804 A 11.377 11.377 0 0 1 42.12 7.85 A 7.552 7.552 0 0 1 41.457 8.485 A 5.571 5.571 0 0 1 40.74 9 A 7.658 7.658 0 0 0 40.492 9.697 A 9.804 9.804 0 0 0 40.33 10.3 A 12.45 12.45 0 0 0 40.101 11.537 A 11.353 11.353 0 0 0 40.08 11.71 A 13.312 13.312 0 0 0 40.025 12.285 Q 40.005 12.57 40.001 12.824 A 7.615 7.615 0 0 0 40 12.94 A 8.266 8.266 0 0 0 40.001 13.097 Q 40.004 13.22 40.01 13.32 A 4.082 4.082 0 0 0 40.026 13.512 A 3.38 3.38 0 0 0 40.04 13.62 Q 40.32 12.8 40.65 12.03 A 13.471 13.471 0 0 1 41.127 11.028 A 11.481 11.481 0 0 1 41.36 10.61 A 8.07 8.07 0 0 1 41.803 9.929 A 6.499 6.499 0 0 1 42.17 9.47 A 3.998 3.998 0 0 1 42.627 9.023 A 3.094 3.094 0 0 1 43.08 8.71 Q 43.56 8.44 44.1 8.44 A 1.881 1.881 0 0 1 44.465 8.473 Q 44.776 8.535 44.99 8.71 Q 45.32 8.98 45.47 9.39 Q 45.62 9.8 45.62 10.24 Q 45.62 10.86 45.41 11.44 A 30.478 30.478 0 0 1 44.994 12.526 A 27.859 27.859 0 0 1 44.98 12.56 Q 44.76 13.1 44.76 13.6 A 1.487 1.487 0 0 0 44.774 13.808 Q 44.807 14.044 44.924 14.173 A 0.447 0.447 0 0 0 44.93 14.18 A 0.563 0.563 0 0 0 45.34 14.36 A 0.736 0.736 0 0 0 45.36 14.36 Q 45.691 14.36 46.079 14.132 A 2.989 2.989 0 0 0 46.39 13.92 Q 46.96 13.48 47.52 12.75 Q 48.08 12.02 48.48 11.16 Z M 26.78 8.36 L 26.78 8 Q 26.94 8.02 27.16 8.04 A 21.587 21.587 0 0 0 27.379 8.059 Q 27.495 8.068 27.623 8.077 A 36.113 36.113 0 0 0 27.66 8.08 Q 28.08 7 28.56 5.99 Q 29.04 4.98 29.51 4.19 Q 29.865 3.593 30.198 3.179 A 5.051 5.051 0 0 1 30.41 2.93 A 2.861 2.861 0 0 1 30.604 2.736 Q 30.805 2.555 30.973 2.493 A 0.481 0.481 0 0 1 31.14 2.46 A 0.435 0.435 0 0 1 31.418 2.56 A 0.55 0.55 0 0 1 31.43 2.57 A 0.35 0.35 0 0 1 31.542 2.75 Q 31.56 2.817 31.56 2.9 A 0.876 0.876 0 0 1 31.534 3.097 Q 31.463 3.4 31.199 3.901 A 8.79 8.79 0 0 1 31.14 4.01 Q 30.72 4.78 30.1 5.84 Q 29.48 6.9 28.9 8.14 L 29.27 8.14 L 29.64 8.14 Q 30.3 8.14 31.03 8.12 Q 31.76 8.1 32.5 8.02 L 32.5 8.38 A 60.502 60.502 0 0 1 31.519 8.479 Q 31.058 8.522 30.647 8.552 A 35.508 35.508 0 0 1 30.53 8.56 A 27.988 27.988 0 0 1 29.805 8.601 Q 29.473 8.615 29.175 8.619 A 16.341 16.341 0 0 1 28.98 8.62 L 28.83 8.62 L 28.68 8.62 Q 28.22 9.68 27.9 10.8 A 8.263 8.263 0 0 0 27.608 12.345 A 7.226 7.226 0 0 0 27.58 12.98 A 4.501 4.501 0 0 0 27.598 13.402 Q 27.649 13.938 27.84 14.21 Q 28.1 14.58 28.7 14.58 Q 29.655 14.58 30.576 13.805 A 4.971 4.971 0 0 0 30.74 13.66 Q 31.74 12.74 32.5 11.16 L 32.76 11.36 Q 32.28 12.48 31.55 13.38 A 6.556 6.556 0 0 1 30.643 14.304 A 5.444 5.444 0 0 1 29.94 14.8 A 3.739 3.739 0 0 1 28.852 15.239 A 3.342 3.342 0 0 1 28.12 15.32 Q 27.407 15.32 26.969 14.976 A 1.422 1.422 0 0 1 26.8 14.82 Q 26.432 14.42 26.358 13.711 A 3.607 3.607 0 0 1 26.34 13.34 Q 26.34 12.704 26.513 11.853 A 13.954 13.954 0 0 1 26.67 11.17 Q 27 9.88 27.5 8.52 Q 27.3 8.48 27.12 8.45 A 1.839 1.839 0 0 1 26.82 8.375 A 1.679 1.679 0 0 1 26.78 8.36 Z M 38.96 11.14 L 39.22 11.34 Q 38.76 12.54 37.96 13.49 A 6.949 6.949 0 0 1 36.954 14.474 A 5.823 5.823 0 0 1 36.2 14.98 A 4.311 4.311 0 0 1 35.174 15.401 A 3.61 3.61 0 0 1 34.26 15.52 A 2.366 2.366 0 0 1 33.418 15.375 A 2.126 2.126 0 0 1 32.66 14.88 Q 32.02 14.24 32.02 12.96 Q 32.02 11.96 32.41 11.01 Q 32.8 10.06 33.44 9.3 A 5.653 5.653 0 0 1 34.34 8.436 A 4.919 4.919 0 0 1 34.86 8.09 Q 35.64 7.64 36.4 7.64 Q 36.877 7.64 37.178 7.802 A 0.898 0.898 0 0 1 37.52 8.12 Q 37.82 8.6 37.82 9.12 A 2.11 2.11 0 0 1 37.746 9.689 A 1.764 1.764 0 0 1 37.55 10.14 A 1.066 1.066 0 0 1 37.352 10.381 A 0.774 0.774 0 0 1 36.82 10.58 A 0.692 0.692 0 0 1 36.318 10.367 A 1.005 1.005 0 0 1 36.24 10.28 A 0.855 0.855 0 0 0 36.462 10.105 Q 36.626 9.929 36.76 9.63 A 2.704 2.704 0 0 0 36.916 9.189 A 1.983 1.983 0 0 0 36.98 8.7 A 1.03 1.03 0 0 0 36.971 8.561 Q 36.952 8.419 36.89 8.33 A 0.26 0.26 0 0 0 36.779 8.241 Q 36.686 8.2 36.54 8.2 Q 36 8.2 35.43 8.68 A 4.821 4.821 0 0 0 34.831 9.289 A 6.477 6.477 0 0 0 34.37 9.92 Q 33.88 10.68 33.57 11.52 A 5.338 5.338 0 0 0 33.342 12.31 A 3.987 3.987 0 0 0 33.26 13.1 Q 33.26 13.72 33.56 14.24 A 0.954 0.954 0 0 0 34.084 14.664 Q 34.259 14.727 34.478 14.749 A 2.462 2.462 0 0 0 34.72 14.76 Q 35.52 14.76 36.33 14.32 A 4.921 4.921 0 0 0 37.3 13.622 A 6.305 6.305 0 0 0 37.84 13.06 A 6.328 6.328 0 0 0 38.793 11.543 A 7.39 7.39 0 0 0 38.96 11.14 Z M 26.82 11.16 L 27.06 11.34 Q 26.52 12.54 25.69 13.42 Q 24.86 14.3 23.89 14.79 Q 22.92 15.28 21.92 15.28 A 3.53 3.53 0 0 1 21.217 15.215 Q 20.509 15.071 20.09 14.61 A 2.325 2.325 0 0 1 19.485 13.126 A 3.026 3.026 0 0 1 19.48 12.96 A 4.074 4.074 0 0 1 19.622 11.916 A 5.551 5.551 0 0 1 19.93 11.06 Q 20.38 10.06 21.13 9.18 A 7.208 7.208 0 0 1 22.232 8.126 A 6.337 6.337 0 0 1 22.78 7.75 Q 23.68 7.2 24.56 7.2 Q 25.02 7.2 25.41 7.44 Q 25.799 7.679 25.8 8.414 A 2.845 2.845 0 0 1 25.8 8.42 Q 25.8 9.18 25.35 9.85 Q 24.9 10.52 24.17 11.04 Q 23.44 11.56 22.57 11.89 A 6.737 6.737 0 0 1 21.19 12.257 A 6.096 6.096 0 0 1 20.84 12.3 A 4.753 4.753 0 0 0 20.798 12.542 A 3.975 3.975 0 0 0 20.78 12.68 A 3.309 3.309 0 0 0 20.763 12.897 A 2.746 2.746 0 0 0 20.76 13.02 Q 20.76 13.32 20.83 13.62 Q 20.9 13.92 21.08 14.17 A 1.157 1.157 0 0 0 21.458 14.504 A 1.42 1.42 0 0 0 21.57 14.56 A 1.46 1.46 0 0 0 21.882 14.658 Q 22.088 14.7 22.34 14.7 A 3.181 3.181 0 0 0 23.619 14.424 A 4.012 4.012 0 0 0 24.04 14.21 Q 24.88 13.72 25.6 12.92 Q 26.32 12.12 26.82 11.16 Z M 41 8.22 A 5.659 5.659 0 0 0 41.587 7.685 A 7.557 7.557 0 0 0 42.09 7.1 Q 42.62 6.42 43.08 5.65 A 20.727 20.727 0 0 0 43.714 4.512 A 18.213 18.213 0 0 0 43.9 4.14 Q 44.209 3.504 44.401 2.972 A 7.906 7.906 0 0 0 44.46 2.8 Q 44.616 2.332 44.65 2.046 A 1.235 1.235 0 0 0 44.66 1.9 Q 44.66 1.8 44.64 1.77 A 0.065 0.065 0 0 0 44.593 1.741 A 0.094 0.094 0 0 0 44.58 1.74 A 0.155 0.155 0 0 0 44.506 1.766 Q 44.358 1.853 44.058 2.229 A 8.191 8.191 0 0 0 44.01 2.29 A 10.097 10.097 0 0 0 43.699 2.712 Q 43.543 2.934 43.374 3.196 A 23.794 23.794 0 0 0 43.02 3.76 Q 42.46 4.68 41.92 5.84 Q 41.38 7 41 8.22 Z M 20.94 11.92 A 6.805 6.805 0 0 0 21.43 11.734 Q 21.772 11.59 22.16 11.39 Q 22.84 11.04 23.47 10.56 A 5.178 5.178 0 0 0 24.195 9.896 A 4.421 4.421 0 0 0 24.51 9.5 A 2.296 2.296 0 0 0 24.821 8.896 A 1.949 1.949 0 0 0 24.92 8.28 A 0.975 0.975 0 0 0 24.912 8.152 Q 24.895 8.023 24.84 7.94 A 0.222 0.222 0 0 0 24.748 7.863 Q 24.671 7.827 24.548 7.821 A 1.02 1.02 0 0 0 24.5 7.82 A 1.439 1.439 0 0 0 24.021 7.907 Q 23.758 7.999 23.48 8.19 A 4.62 4.62 0 0 0 22.885 8.679 A 6.047 6.047 0 0 0 22.44 9.16 A 8.511 8.511 0 0 0 21.542 10.477 A 9.515 9.515 0 0 0 21.54 10.48 A 6.923 6.923 0 0 0 21.085 11.47 A 6.009 6.009 0 0 0 20.94 11.92 Z M 13.86 6.78 Q 14.78 6.04 15.47 5.1 A 11.197 11.197 0 0 0 16.074 4.192 A 8.212 8.212 0 0 0 16.54 3.29 Q 16.853 2.573 16.908 2.107 A 1.599 1.599 0 0 0 16.92 1.92 Q 16.92 1.822 16.91 1.781 A 0.145 0.145 0 0 0 16.91 1.78 Q 16.901 1.744 16.868 1.741 A 0.071 0.071 0 0 0 16.86 1.74 Q 16.665 1.74 16.196 2.404 A 8.602 8.602 0 0 0 16.17 2.44 A 12.443 12.443 0 0 0 15.818 2.974 Q 15.642 3.255 15.453 3.584 A 28.818 28.818 0 0 0 15.06 4.29 Q 14.44 5.44 13.86 6.78 Z" vector-effect="non-scaling-stroke"/></g></svg>